<?xml version="1.0" encoding="utf-8"?>
<!-- Generator: Adobe Illustrator 24.1.3, SVG Export Plug-In . SVG Version: 6.00 Build 0)  -->
<svg version="1.2" baseProfile="tiny" id="Layer_1" xmlns="http://www.w3.org/2000/svg" xmlns:xlink="http://www.w3.org/1999/xlink"
	 x="0px" y="0px" viewBox="0 0 97.47 87.64" overflow="visible" xml:space="preserve">
<g>
	<g>
		<g>
			<g>
				<g>
					<path fill="#FFFFFF" d="M58.25,62.56c-4.74,1.8-27.12,10.27-33.31,12.49C18.01,77.54,3.82,86.03,3.82,86.03
						s4.35,1.1,16.52,1.23c10.97,0.12,37.58-9.89,42.73-11.87l0.88-0.33l0.01,0.04L65,74.72l-0.01-0.03l0,0
						c0,0.01,0.01,0.02,0.01,0.03l0.01-0.04l0.81-0.3c-0.14-0.5-0.23-0.97-0.3-1.42l-0.09-1.55c0.12-2,0.85-2.77,1.9-4.49v0
						c0.62-0.61,1.16-0.88,1.16-0.88l-2.41-6.42L58.25,62.56z"/>
				</g>
			</g>
			<g>
				<g>
					<path d="M62.85,75.89l-5.1-13.55l8.55-3.21l2.67,7.11l-0.31,0.15c-0.17,0.08-4.07,2.11-2.47,7.88l0.09,0.34L62.85,75.89z
						 M58.74,62.78L63.3,74.9l2.06-0.77c-1.29-5.19,1.67-7.61,2.65-8.26l-2.16-5.76L58.74,62.78z"/>
				</g>
			</g>
			<g>
				<g>
					<path d="M65,74.72c-0.2-0.18-0.29-0.4-0.37-0.63c-0.07-0.23-0.15-0.46-0.21-0.69c-0.05-0.23-0.12-0.47-0.16-0.71l-0.06-0.36
						l-0.04-0.36c-0.04-0.24-0.04-0.48-0.05-0.73c0-0.24-0.01-0.49,0.02-0.73c0.03-0.49,0.11-0.98,0.24-1.45
						c0.25-0.95,0.71-1.85,1.3-2.63c0.3-0.39,0.63-0.76,0.99-1.09c0.36-0.34,0.74-0.64,1.19-0.9l0.3,0.54
						c-0.18,0.1-0.37,0.24-0.55,0.38c-0.18,0.14-0.36,0.28-0.53,0.44c-0.34,0.31-0.65,0.64-0.94,1c-0.57,0.71-1.01,1.53-1.28,2.41
						c-0.13,0.44-0.23,0.89-0.28,1.35c-0.03,0.23-0.03,0.46-0.05,0.69c0.01,0.23-0.01,0.46,0.02,0.69l0.03,0.35l0.05,0.35
						c0.02,0.23,0.08,0.46,0.12,0.69c0.05,0.23,0.11,0.45,0.17,0.68C64.98,74.22,65.04,74.45,65,74.72z"/>
				</g>
			</g>
			<g>
				<g>
					<path d="M18.51,86.42c0,0-1.57-0.03,1.7-4.98s3.52-5.25,3.52-5.25l-5.2,2.52c0.67,0.16-0.26,1.9-1.65,3.94
						c-1.39,2.04-2.85,3.82-2.85,3.82L18.51,86.42z"/>
				</g>
			</g>
			<g>
				<g>
					<path d="M35.59,71.98c0,0-5.63,8.54-6.18,11.37c-0.55,2.83,3.37,1.23,3.37,1.23L27.14,86l-7.33,0.56c0,0,0.59-0.03,1.04-0.85
						c0.45-0.82,6.09-10.48,6.09-10.48L35.59,71.98z"/>
				</g>
			</g>
			<g>
				<g>
					<polygon points="44.52,81.37 50.74,66.05 58.64,63.09 62.99,74.69 					"/>
				</g>
			</g>
			<g>
				<g>
					<path fill="#FFFFFF" d="M58.51,63.61l4.06,10.83c-5.41,2.07-31.22,11.75-42.03,11.75c-0.06,0-0.12,0-0.18,0
						c-6.62-0.07-10.91-0.43-13.41-0.74c4.4-2.54,13.37-7.59,18.36-9.39C31.46,73.85,53.76,65.41,58.51,63.61L58.51,63.61z
						 M58.58,62.5c-0.11,0-0.22,0.02-0.33,0.06c-4.74,1.8-27.12,10.27-33.31,12.49C18.01,77.54,3.82,86.03,3.82,86.03
						s4.35,1.1,16.52,1.23c0.06,0,0.13,0,0.19,0c11.09,0,37.41-9.9,42.54-11.87c0.48-0.19,0.73-0.73,0.54-1.21l-4.15-11.07
						C59.33,62.73,58.97,62.5,58.58,62.5L58.58,62.5z"/>
				</g>
			</g>
			<g>
				<g>
					<path d="M20.54,87.64c-0.07,0-0.13,0-0.2,0C8.26,87.51,3.91,86.45,3.73,86.4l-0.9-0.23l0.79-0.47
						c0.14-0.09,14.3-8.54,21.19-11.01c6.22-2.24,28.83-10.8,33.3-12.49c0.33-0.13,0.69-0.11,1.02,0.03
						c0.32,0.15,0.57,0.41,0.7,0.74l4.15,11.07c0.26,0.68-0.09,1.45-0.77,1.71C58.02,77.75,31.69,87.64,20.54,87.64z M4.89,85.85
						c1.87,0.32,6.6,0.94,15.46,1.03c0.06,0,0.13,0,0.19,0c11.01,0,37.23-9.86,42.4-11.84c0.29-0.11,0.43-0.43,0.32-0.72
						l-4.15-11.07c-0.05-0.14-0.16-0.25-0.29-0.31c-0.14-0.06-0.29-0.07-0.43-0.01c-4.47,1.69-27.08,10.25-33.31,12.49
						C19.24,77.51,8.07,83.97,4.89,85.85z"/>
				</g>
			</g>
			<g>
				<g>
					<path d="M66.08,59.62l-0.2-0.53c0,0,18.81-7.06,21.21-7.96c2.41-0.9,6.95-2.02,9.03,3.55c1.4,3.74-3.27,6.14-3.27,6.14
						s-2.07-1.03-4.83-0.32c-2.77,0.71-5.67,2.04-8.18,2.87c-2.52,0.82-6.32,1.35-7.54,1.7c-1.22,0.35-3.67,1.38-3.67,1.38
						L66.08,59.62z"/>
				</g>
			</g>
			<g>
				<g>
					<path fill="#FFFFFF" d="M66.15,59.81c1.09-0.46,2.18-0.9,3.27-1.35l3.29-1.3c2.19-0.87,4.4-1.7,6.61-2.54
						c2.21-0.82,4.42-1.65,6.64-2.44c0.56-0.2,1.11-0.4,1.67-0.59c0.57-0.19,1.14-0.35,1.73-0.44c0.59-0.1,1.19-0.14,1.78-0.1
						c0.59,0.04,1.18,0.16,1.73,0.38c-1.13-0.35-2.34-0.32-3.47-0.06c-0.57,0.12-1.13,0.29-1.68,0.5c-0.55,0.21-1.1,0.43-1.64,0.65
						c-2.19,0.87-4.4,1.7-6.61,2.53c-2.21,0.82-4.42,1.65-6.64,2.43l-3.34,1.18C68.39,59.05,67.27,59.44,66.15,59.81z"/>
				</g>
			</g>
			<g>
				<g>
					<path fill="#FFFFFF" d="M68.41,64.94c0.86-0.64,1.76-1.21,2.73-1.68c0.25-0.11,0.49-0.22,0.76-0.31
						c0.26-0.08,0.52-0.14,0.78-0.2c0.52-0.12,1.04-0.23,1.56-0.34c2.08-0.45,4.16-0.92,6.13-1.7c1.98-0.76,3.93-1.65,5.98-2.31
						c0.52-0.16,1.03-0.32,1.57-0.43c0.54-0.11,1.08-0.17,1.63-0.18c0.55-0.02,1.09,0.02,1.63,0.09c0.54,0.08,1.07,0.18,1.61,0.35
						l-0.16,0.43c-0.48-0.16-1-0.26-1.51-0.34c-0.52-0.07-1.04-0.1-1.56-0.09c-0.52,0.01-1.04,0.07-1.55,0.17
						c-0.51,0.1-1.02,0.26-1.52,0.41c-2.02,0.64-3.97,1.5-5.97,2.25c-1,0.38-2.03,0.7-3.07,0.95c-1.04,0.25-2.09,0.46-3.14,0.67
						c-0.52,0.1-1.05,0.2-1.57,0.31c-0.26,0.05-0.52,0.11-0.77,0.18c-0.25,0.07-0.49,0.18-0.73,0.28
						C70.27,63.91,69.35,64.44,68.41,64.94z"/>
				</g>
			</g>
			<g>
				<g>
					<path fill="#FFFFFF" d="M92.86,60.82c-0.01-0.4-0.04-0.8-0.1-1.19c-0.03-0.19-0.07-0.39-0.11-0.58
						c-0.05-0.19-0.1-0.38-0.16-0.55l0,0l-0.04-0.19l0.15-0.08c0.51-0.25,0.98-0.6,1.35-1.03c0.37-0.43,0.61-0.97,0.67-1.55
						c0.07-0.57-0.02-1.17-0.22-1.72l-0.07-0.21c-0.02-0.07-0.06-0.14-0.09-0.2l-0.19-0.41c-0.13-0.27-0.3-0.52-0.44-0.78
						c0.16,0.25,0.34,0.49,0.49,0.75l0.21,0.4c0.03,0.07,0.08,0.13,0.1,0.2l0.08,0.21c0.24,0.55,0.38,1.16,0.34,1.78
						c-0.03,0.62-0.26,1.24-0.63,1.74c-0.38,0.5-0.86,0.91-1.41,1.22l0.11-0.26l0,0c0.03,0.22,0.05,0.42,0.06,0.62
						c0.01,0.2,0.01,0.41,0,0.61C92.97,60.03,92.93,60.43,92.86,60.82z"/>
				</g>
			</g>
			<g>
				<g>
					<polygon points="60.44,62.58 66.38,60.38 66.57,60.96 					"/>
				</g>
			</g>
			<g>
				<g>
					<circle fill="#FFFFFF" cx="80.62" cy="57.23" r="0.97"/>
				</g>
			</g>
			<g>
				<g>
					<g>
						<circle fill="#FFFFFF" cx="71.32" cy="60.72" r="0.97"/>
					</g>
				</g>
				<g>
					<g>
						<circle fill="#FFFFFF" cx="89.91" cy="53.75" r="0.97"/>
					</g>
				</g>
			</g>
			<g>
				<g>
					<rect x="63.76" y="73.96" transform="matrix(0.9363 -0.3512 0.3512 0.9363 -22.0507 27.3291)" width="1.1" height="0.99"/>
				</g>
			</g>
		</g>
		<g>
			<g>
				<g>
					<path fill="#FFFFFF" d="M40.89,25.09c4.74-1.8,27.12-10.27,33.31-12.49c6.93-2.49,21.12-10.98,21.12-10.98
						s-4.35-1.1-16.52-1.23c-10.97-0.12-37.58,9.89-42.73,11.87l-0.88,0.33l-0.01-0.04l-1.03,0.39l0.01,0.03l0,0
						c0-0.01-0.01-0.02-0.01-0.03l-0.01,0.04l-0.81,0.3c0.14,0.5,0.23,0.97,0.3,1.42l0.09,1.55c-0.12,2-0.85,2.77-1.9,4.49l0,0
						c-0.62,0.61-1.16,0.88-1.16,0.88l2.41,6.42L40.89,25.09z"/>
				</g>
			</g>
			<g>
				<g>
					<path d="M32.84,28.52l-2.67-7.11l0.31-0.15c0.17-0.08,4.07-2.12,2.47-7.88l-0.09-0.34l3.44-1.28l5.1,13.55L32.84,28.52z
						 M31.12,21.77l2.16,5.76l7.11-2.67l-4.56-12.12l-2.06,0.77C35.06,18.7,32.1,21.12,31.12,21.77z"/>
				</g>
			</g>
			<g>
				<g>
					<path d="M34.15,12.93c0.2,0.18,0.29,0.4,0.37,0.63c0.07,0.23,0.15,0.46,0.21,0.69c0.05,0.23,0.12,0.47,0.16,0.71l0.06,0.36
						l0.04,0.36c0.04,0.24,0.04,0.48,0.05,0.73c0,0.24,0.01,0.49-0.02,0.73c-0.03,0.49-0.11,0.98-0.24,1.45
						c-0.25,0.95-0.71,1.85-1.3,2.63c-0.3,0.39-0.63,0.76-0.99,1.09c-0.36,0.34-0.74,0.64-1.19,0.9L31,22.67
						c0.18-0.1,0.37-0.24,0.55-0.38c0.18-0.14,0.36-0.28,0.53-0.44c0.34-0.31,0.65-0.64,0.94-1c0.57-0.71,1.01-1.53,1.27-2.41
						c0.13-0.44,0.23-0.89,0.28-1.35c0.03-0.23,0.03-0.46,0.05-0.69c-0.01-0.23,0.01-0.46-0.02-0.69l-0.03-0.35l-0.05-0.35
						c-0.02-0.23-0.08-0.46-0.12-0.69c-0.05-0.23-0.11-0.45-0.17-0.68C34.17,13.42,34.1,13.2,34.15,12.93z"/>
				</g>
			</g>
			<g>
				<g>
					<path d="M80.63,1.23c0,0,1.57,0.03-1.7,4.98c-3.26,4.95-3.52,5.25-3.52,5.25l5.2-2.52c-0.67-0.16,0.26-1.9,1.65-3.94
						s2.85-3.82,2.85-3.82L80.63,1.23z"/>
				</g>
			</g>
			<g>
				<g>
					<path d="M63.55,15.66c0,0,5.63-8.54,6.18-11.37c0.55-2.83-3.37-1.23-3.37-1.23l5.65-1.41l7.33-0.56c0,0-0.59,0.03-1.04,0.85
						s-6.09,10.48-6.09,10.48L63.55,15.66z"/>
				</g>
			</g>
			<g>
				<g>
					<polygon points="54.62,6.27 48.4,21.59 40.5,24.56 36.15,12.95 					"/>
				</g>
			</g>
			<g>
				<g>
					<path fill="#FFFFFF" d="M78.6,1.46L78.6,1.46c0.06,0,0.12,0,0.18,0C85.4,1.53,89.69,1.89,92.2,2.2
						c-4.4,2.54-13.37,7.59-18.36,9.39c-6.16,2.21-28.45,10.65-33.2,12.45l-4.06-10.83C41.98,11.13,67.8,1.46,78.6,1.46L78.6,1.46z
						 M78.6,0.38c-11.09,0-37.41,9.9-42.54,11.87c-0.48,0.19-0.73,0.73-0.54,1.21l4.15,11.07c0.14,0.38,0.5,0.61,0.88,0.61
						c0.11,0,0.22-0.02,0.33-0.06c4.74-1.8,27.12-10.27,33.31-12.49c6.93-2.49,21.12-10.98,21.12-10.98s-4.35-1.1-16.52-1.23
						C78.73,0.38,78.67,0.38,78.6,0.38L78.6,0.38z"/>
				</g>
			</g>
			<g>
				<g>
					<path d="M40.56,25.53c-0.19,0-0.37-0.04-0.55-0.12c-0.32-0.15-0.57-0.41-0.7-0.74L35.16,13.6c-0.26-0.68,0.09-1.45,0.77-1.71
						C41.12,9.9,67.46,0,78.6,0c0.07,0,0.13,0,0.2,0c12.08,0.13,16.43,1.2,16.61,1.24l0.9,0.23l-0.79,0.47
						c-0.14,0.09-14.3,8.54-21.19,11.01c-6.2,2.23-28.83,10.79-33.3,12.49C40.88,25.5,40.72,25.53,40.56,25.53z M78.6,0.77
						c-11.01,0-37.23,9.86-42.4,11.84c-0.29,0.11-0.43,0.43-0.32,0.72l4.15,11.07c0.05,0.14,0.16,0.25,0.29,0.31
						c0.14,0.06,0.29,0.07,0.43,0.01c4.47-1.69,27.1-10.26,33.31-12.49c5.84-2.1,17-8.56,20.19-10.44
						c-1.87-0.32-6.6-0.94-15.46-1.03C78.73,0.77,78.66,0.77,78.6,0.77z"/>
				</g>
			</g>
			<g>
				<g>
					<path d="M33.06,28.03l0.2,0.53c0,0-18.81,7.06-21.21,7.96s-6.95,2.02-9.03-3.55c-1.4-3.74,3.27-6.14,3.27-6.14
						s2.07,1.03,4.83,0.32s5.67-2.04,8.18-2.87s6.32-1.35,7.54-1.7c1.22-0.35,3.67-1.38,3.67-1.38L33.06,28.03z"/>
				</g>
			</g>
			<g>
				<g>
					<path fill="#FFFFFF" d="M32.99,27.84c-1.09,0.46-2.18,0.9-3.27,1.35l-3.29,1.3c-2.19,0.87-4.4,1.7-6.61,2.54
						c-2.21,0.82-4.42,1.65-6.64,2.44c-0.56,0.2-1.11,0.4-1.67,0.59c-0.57,0.19-1.14,0.35-1.73,0.44c-0.59,0.1-1.19,0.14-1.78,0.1
						c-0.59-0.04-1.18-0.16-1.73-0.38c1.13,0.35,2.34,0.32,3.47,0.06c0.57-0.12,1.13-0.29,1.68-0.5c0.55-0.21,1.1-0.43,1.64-0.65
						c2.19-0.87,4.4-1.7,6.61-2.53c2.21-0.82,4.42-1.65,6.64-2.43l3.34-1.18C30.76,28.6,31.87,28.2,32.99,27.84z"/>
				</g>
			</g>
			<g>
				<g>
					<path fill="#FFFFFF" d="M30.74,22.7c-0.86,0.64-1.76,1.21-2.73,1.68c-0.25,0.11-0.49,0.22-0.76,0.31
						c-0.26,0.08-0.52,0.14-0.78,0.2c-0.52,0.12-1.04,0.23-1.56,0.34c-2.08,0.45-4.16,0.92-6.13,1.7c-1.98,0.76-3.93,1.65-5.98,2.31
						c-0.52,0.16-1.03,0.32-1.57,0.43c-0.54,0.11-1.08,0.17-1.63,0.18c-0.55,0.02-1.09-0.02-1.63-0.09
						c-0.54-0.08-1.07-0.18-1.61-0.35l0.16-0.43c0.48,0.16,1,0.26,1.51,0.34c0.52,0.07,1.04,0.1,1.56,0.09
						c0.52-0.01,1.04-0.07,1.55-0.17c0.51-0.1,1.02-0.26,1.52-0.41c2.02-0.64,3.97-1.5,5.97-2.25c1-0.38,2.03-0.7,3.07-0.95
						c1.04-0.25,2.09-0.46,3.14-0.67c0.52-0.1,1.05-0.2,1.57-0.31c0.26-0.05,0.52-0.11,0.77-0.18c0.25-0.07,0.49-0.18,0.73-0.28
						C28.87,23.73,29.8,23.21,30.74,22.7z"/>
				</g>
			</g>
			<g>
				<g>
					<path fill="#FFFFFF" d="M6.28,26.82c0.01,0.4,0.04,0.8,0.1,1.19c0.03,0.19,0.07,0.39,0.11,0.58c0.05,0.19,0.1,0.38,0.16,0.55
						l0,0l0.04,0.19L6.54,29.4c-0.51,0.25-0.98,0.6-1.35,1.03c-0.37,0.43-0.61,0.97-0.67,1.55c-0.07,0.57,0.02,1.17,0.22,1.72
						l0.07,0.21c0.02,0.07,0.06,0.14,0.09,0.2l0.19,0.41c0.13,0.27,0.3,0.52,0.44,0.78c-0.16-0.25-0.34-0.49-0.49-0.75l-0.21-0.4
						c-0.03-0.07-0.08-0.13-0.1-0.2l-0.08-0.21c-0.24-0.55-0.38-1.16-0.34-1.78c0.03-0.62,0.26-1.24,0.63-1.74
						c0.38-0.5,0.86-0.91,1.41-1.22l-0.11,0.26l0,0c-0.03-0.22-0.05-0.42-0.06-0.62c-0.01-0.2-0.01-0.41,0-0.61
						C6.17,27.62,6.21,27.22,6.28,26.82z"/>
				</g>
			</g>
			<g>
				<g>
					<polygon points="38.7,25.07 32.76,27.27 32.58,26.68 					"/>
				</g>
			</g>
			<g>
				<g>
					<circle fill="#FFFFFF" cx="18.53" cy="30.41" r="0.97"/>
				</g>
			</g>
			<g>
				<g>
					<g>
						<circle fill="#FFFFFF" cx="27.82" cy="26.93" r="0.97"/>
					</g>
				</g>
				<g>
					<g>
						<circle fill="#FFFFFF" cx="9.24" cy="33.9" r="0.97"/>
					</g>
				</g>
			</g>
			<g>
				<g>
					<rect x="34.28" y="12.7" transform="matrix(-0.9363 0.3512 -0.3512 -0.9363 72.0823 13.3172)" width="1.1" height="0.99"/>
				</g>
			</g>
		</g>
	</g>
	<g>
		<path d="M2.85,47.19c-0.22,0-0.42-0.13-0.5-0.35c-0.11-0.28,0.03-0.59,0.31-0.69c16.24-6.19,28.76-10.99,42.01-16.07
			c14.92-5.72,30.36-11.64,51.66-19.74c0.28-0.11,0.59,0.03,0.69,0.31c0.11,0.28-0.03,0.59-0.31,0.69
			c-21.3,8.1-36.73,14.02-51.65,19.74C31.8,36.17,19.28,40.97,3.04,47.16C2.98,47.18,2.91,47.19,2.85,47.19z"/>
	</g>
	<g>
		<path d="M3.27,76.86c-0.22,0-0.42-0.13-0.5-0.35c-0.11-0.28,0.03-0.59,0.31-0.69c16.24-6.19,28.76-10.99,42.01-16.07
			c14.92-5.72,30.36-11.64,51.66-19.74c0.28-0.11,0.59,0.03,0.69,0.31c0.11,0.28-0.03,0.59-0.31,0.69
			c-21.3,8.1-36.73,14.02-51.65,19.74C32.22,65.84,19.7,70.64,3.46,76.83C3.4,76.85,3.33,76.86,3.27,76.86z"/>
	</g>
	<g>
		<path d="M12.59,4.59l-1.23,0.02l0.02,1.06l0.91-0.02l0.01,0.57l-0.91,0.02l0.02,1.24l1.23-0.02l0.01,0.57l-1.87,0.03l-0.07-4.02
			l1.87-0.03L12.59,4.59z"/>
		<path d="M15.35,5.14c-0.11-0.4-0.3-0.59-0.56-0.59c-0.24,0-0.41,0.18-0.41,0.42c0,0.14,0.07,0.29,0.18,0.4
			c0.11,0.11,0.11,0.11,0.55,0.43c0.35,0.26,0.48,0.37,0.62,0.53c0.17,0.2,0.27,0.46,0.28,0.73c0.01,0.61-0.44,1.03-1.12,1.04
			C14.2,8.12,13.78,7.76,13.63,7l0.61-0.19c0.09,0.48,0.31,0.72,0.65,0.71c0.28,0,0.47-0.19,0.46-0.47c0-0.25-0.14-0.41-0.63-0.77
			c-0.58-0.43-0.61-0.45-0.77-0.64c-0.15-0.18-0.24-0.42-0.24-0.66c-0.01-0.58,0.43-1,1.06-1.01c0.59-0.01,0.99,0.33,1.18,0.99
			L15.35,5.14z"/>
		<path d="M18.4,8.05l-0.64,0.01l-0.06-3.45l-0.8,0.01L16.9,4.05l2.25-0.04l0.01,0.57L18.35,4.6L18.4,8.05z"/>
		<path d="M20.25,4.05l1.01-0.02c0.81-0.01,1.2,0.38,1.22,1.24l0.03,1.5c0.01,0.86-0.36,1.27-1.18,1.28l-1.01,0.02L20.25,4.05z
			 M21.26,7.48c0.45-0.01,0.61-0.24,0.6-0.87l-0.02-1.16c-0.01-0.63-0.18-0.85-0.63-0.84L20.9,4.61l0.05,2.87L21.26,7.48z"/>
		<path d="M12.12,15.28l-0.6,0.01l-0.05-3.07l-0.6,0.01l-0.01-0.37c0.33-0.14,0.69-0.4,0.83-0.59l0.35-0.01L12.12,15.28z"/>
		<path d="M14.57,14.25l0,0.1c0.01,0.3,0.13,0.45,0.39,0.45c0.16,0,0.28-0.07,0.34-0.19c0.07-0.13,0.08-0.28,0.08-0.66l-0.01-0.5
			c-0.18,0.23-0.35,0.33-0.62,0.33c-0.56,0.01-0.84-0.38-0.86-1.2c-0.02-0.89,0.33-1.35,1.01-1.36c0.33-0.01,0.6,0.11,0.77,0.32
			c0.19,0.24,0.28,0.56,0.29,1.07l0.02,1.43c0.01,0.45-0.06,0.72-0.23,0.95c-0.18,0.23-0.45,0.36-0.78,0.36
			c-0.6,0.01-0.99-0.37-1-0.99l0-0.1L14.57,14.25z M15.35,12.4c-0.01-0.44-0.15-0.65-0.43-0.64c-0.3,0.01-0.42,0.22-0.41,0.75
			c0.01,0.51,0.12,0.7,0.42,0.7c0.17,0,0.28-0.07,0.43-0.25L15.35,12.4z"/>
		<path d="M19.3,14.12c0.01,0.42-0.07,0.69-0.26,0.91c-0.18,0.2-0.44,0.31-0.77,0.31c-0.33,0.01-0.6-0.1-0.78-0.29
			c-0.2-0.21-0.28-0.48-0.29-0.9c-0.01-0.55,0.12-0.83,0.49-0.98c-0.34-0.16-0.46-0.38-0.47-0.88c-0.01-0.7,0.34-1.08,0.98-1.1
			s1.01,0.36,1.02,1.06c0.01,0.5-0.11,0.73-0.44,0.89C19.15,13.3,19.29,13.57,19.3,14.12z M17.83,14.13
			c0.01,0.45,0.15,0.66,0.44,0.66c0.29,0,0.42-0.22,0.42-0.66c-0.01-0.46-0.15-0.67-0.44-0.67C17.95,13.47,17.82,13.69,17.83,14.13z
			 M17.83,12.33c0.01,0.37,0.15,0.56,0.41,0.56c0.26,0,0.39-0.2,0.39-0.57c-0.01-0.39-0.14-0.57-0.41-0.57
			C17.95,11.76,17.82,11.96,17.83,12.33z"/>
		<path d="M21.89,12.3l0-0.1c-0.01-0.3-0.13-0.45-0.39-0.45c-0.16,0-0.28,0.07-0.34,0.19c-0.07,0.13-0.08,0.28-0.08,0.66l0.01,0.5
			c0.18-0.23,0.35-0.33,0.62-0.33c0.56-0.01,0.84,0.38,0.86,1.2c0.02,0.89-0.33,1.35-1.01,1.36c-0.33,0.01-0.6-0.11-0.77-0.32
			c-0.19-0.24-0.28-0.56-0.29-1.07l-0.02-1.43c-0.01-0.45,0.06-0.72,0.23-0.95c0.18-0.23,0.45-0.36,0.78-0.36
			c0.6-0.01,0.99,0.37,1,0.99l0,0.1L21.89,12.3z M21.11,14.15c0.01,0.44,0.15,0.65,0.43,0.64c0.3-0.01,0.42-0.22,0.41-0.75
			c-0.01-0.51-0.12-0.7-0.42-0.7c-0.17,0-0.28,0.07-0.43,0.25L21.11,14.15z"/>
	</g>
</g>
<line fill="none" x1="3.31" y1="61.98" x2="96.31" y2="25.98"/>
<g>
	<path d="M9.11,66.89c-0.76,0.29-1.45,0.34-2.07,0.17c-0.62-0.18-1.15-0.51-1.59-0.99s-0.77-1.03-1.01-1.64
		c-0.3-0.79-0.48-1.62-0.54-2.51c-0.06-0.88-0.02-1.76,0.14-2.64s0.39-1.7,0.72-2.46c0.33-0.76,0.74-1.42,1.23-1.98
		s1.04-0.95,1.65-1.18c0.44-0.17,0.85-0.2,1.22-0.11c0.38,0.09,0.66,0.39,0.85,0.88c0.11,0.3,0.19,0.65,0.22,1.06
		c0.04,0.41,0.03,0.82-0.01,1.23c-0.04,0.41-0.13,0.77-0.27,1.07s-0.32,0.5-0.55,0.58c-0.1,0.04-0.22,0.04-0.35,0.01
		c-0.14-0.03-0.28-0.11-0.44-0.25c0.09-0.23,0.18-0.5,0.27-0.81s0.18-0.64,0.24-0.98c0.07-0.34,0.1-0.66,0.11-0.97
		c0.01-0.31-0.02-0.56-0.1-0.76c-0.07-0.18-0.17-0.3-0.31-0.37C8.39,54.19,8.2,54.2,7.95,54.3c-0.44,0.17-0.83,0.5-1.17,1.01
		c-0.34,0.5-0.62,1.12-0.84,1.83c-0.22,0.72-0.37,1.48-0.46,2.29c-0.08,0.81-0.09,1.62-0.02,2.42c0.07,0.8,0.23,1.52,0.48,2.17
		c0.18,0.48,0.43,0.91,0.74,1.29s0.68,0.65,1.1,0.8c0.42,0.15,0.89,0.13,1.41-0.06c0.54-0.2,1.02-0.56,1.44-1.06
		c0.42-0.5,0.76-1.08,1.02-1.74c0.26-0.66,0.42-1.32,0.47-1.98l0.49,0.11c-0.1,0.8-0.28,1.57-0.56,2.31
		c-0.28,0.74-0.66,1.39-1.15,1.96C10.42,66.21,9.82,66.63,9.11,66.89z"/>
	<path d="M13.93,64.13c-0.45,0.17-0.81,0.14-1.09-0.09c-0.28-0.23-0.48-0.52-0.61-0.87c-0.12-0.32-0.19-0.67-0.22-1.04
		c-0.03-0.37-0.01-0.74,0.06-1.09s0.17-0.66,0.32-0.92s0.33-0.42,0.55-0.51c0.07-0.03,0.16-0.04,0.26-0.06
		c0.1-0.01,0.19,0,0.24,0.04c-0.06,0.19-0.12,0.43-0.16,0.69s-0.07,0.54-0.08,0.83c-0.01,0.28,0,0.56,0.03,0.83
		c0.03,0.27,0.09,0.51,0.17,0.72c0.08,0.2,0.18,0.35,0.3,0.45c0.12,0.1,0.28,0.12,0.47,0.04c0.19-0.07,0.38-0.27,0.56-0.58
		s0.34-0.66,0.48-1.03c-0.43-0.17-0.78-0.4-1.05-0.69s-0.5-0.68-0.68-1.17c-0.08-0.21-0.12-0.47-0.12-0.78
		c0-0.31,0.08-0.61,0.24-0.9s0.44-0.51,0.84-0.66c0.43-0.16,0.78-0.16,1.04,0.02c0.27,0.17,0.46,0.42,0.58,0.75
		c0.14,0.37,0.2,0.82,0.18,1.35c-0.02,0.53-0.09,1.05-0.2,1.57c0.14,0.01,0.29-0.01,0.45-0.07c0.15-0.06,0.32-0.16,0.5-0.31
		s0.34-0.34,0.48-0.58c0.14-0.24,0.21-0.52,0.23-0.85l0.34,0.09c-0.03,0.59-0.18,1.07-0.45,1.45c-0.27,0.37-0.59,0.62-0.94,0.76
		c-0.13,0.05-0.26,0.09-0.4,0.11c-0.14,0.02-0.27,0.04-0.4,0.04c-0.19,0.53-0.44,1.02-0.77,1.49
		C14.77,63.64,14.38,63.96,13.93,64.13z M15.42,60.93c0.11-0.44,0.17-0.89,0.19-1.35c0.02-0.46-0.04-0.86-0.17-1.2
		c-0.09-0.23-0.19-0.38-0.29-0.46c-0.11-0.08-0.23-0.09-0.37-0.04c-0.19,0.07-0.33,0.28-0.43,0.62c-0.1,0.35-0.07,0.72,0.09,1.13
		c0.08,0.21,0.21,0.45,0.4,0.72C15.02,60.62,15.22,60.81,15.42,60.93z"/>
	<path d="M19.91,61.83c-0.47,0.18-0.87,0.15-1.22-0.07c-0.34-0.22-0.6-0.58-0.79-1.07c-0.18-0.47-0.3-1.06-0.37-1.78
		c-0.07-0.72-0.09-1.49-0.07-2.32c0.02-0.83,0.08-1.66,0.17-2.48s0.21-1.58,0.36-2.28c0.15-0.7,0.31-1.27,0.48-1.72
		s0.36-0.71,0.55-0.78c0.13-0.05,0.26-0.02,0.41,0.08c0.14,0.1,0.27,0.24,0.4,0.4c0.13,0.17,0.22,0.34,0.29,0.51
		c0.1,0.26,0.16,0.63,0.19,1.1c0.03,0.48,0.01,1.01-0.04,1.62c-0.05,0.6-0.14,1.23-0.28,1.89c-0.13,0.66-0.31,1.31-0.53,1.95
		s-0.49,1.22-0.81,1.75c0.05,0.26,0.12,0.54,0.19,0.83c0.07,0.29,0.14,0.53,0.22,0.73c0.26,0.69,0.61,0.95,1.03,0.79
		c0.22-0.08,0.41-0.26,0.58-0.54c0.16-0.27,0.3-0.6,0.4-0.99c0.1-0.39,0.18-0.79,0.22-1.22c-0.09-0.55-0.15-1.15-0.17-1.82
		s-0.02-1.34,0.02-2.04c0.04-0.69,0.11-1.37,0.2-2.03s0.2-1.25,0.33-1.79c0.13-0.53,0.27-0.97,0.42-1.31s0.31-0.54,0.47-0.6
		c0.13-0.05,0.27-0.02,0.41,0.07c0.15,0.1,0.28,0.23,0.41,0.41c0.13,0.17,0.23,0.35,0.29,0.53c0.12,0.31,0.19,0.75,0.21,1.32
		c0.02,0.57-0.01,1.21-0.1,1.92c-0.09,0.71-0.25,1.44-0.48,2.19c-0.23,0.75-0.54,1.46-0.94,2.12c0.04,0.25,0.09,0.51,0.16,0.78
		s0.14,0.51,0.22,0.71c0.28,0.74,0.62,1.03,1.03,0.88c0.26-0.1,0.48-0.32,0.66-0.65c0.18-0.34,0.32-0.73,0.42-1.19
		s0.16-0.91,0.19-1.35l0.45,0.05c-0.08,1.05-0.27,1.92-0.57,2.62c-0.3,0.7-0.74,1.16-1.33,1.39c-0.46,0.17-0.85,0.15-1.19-0.06
		c-0.33-0.22-0.6-0.56-0.79-1.04c-0.15,0.64-0.36,1.17-0.63,1.6C20.7,61.36,20.34,61.66,19.91,61.83z M18.61,57.68
		c0.2-0.47,0.37-0.98,0.51-1.52s0.26-1.08,0.35-1.61c0.09-0.54,0.16-1.05,0.2-1.53c0.04-0.48,0.05-0.91,0.04-1.28
		c-0.02-0.37-0.06-0.65-0.13-0.84c-0.02-0.05-0.03-0.09-0.05-0.12c-0.01-0.03-0.03-0.05-0.05-0.05c-0.07,0.03-0.15,0.19-0.25,0.48
		c-0.09,0.29-0.19,0.68-0.27,1.16c-0.09,0.48-0.16,1.01-0.23,1.6s-0.11,1.21-0.14,1.85C18.57,56.46,18.57,57.08,18.61,57.68z
		 M22.29,56.3c0.24-0.57,0.44-1.16,0.59-1.77s0.26-1.2,0.32-1.77c0.06-0.57,0.09-1.07,0.08-1.52s-0.07-0.78-0.15-1.01
		c-0.02-0.05-0.03-0.09-0.04-0.11c-0.01-0.02-0.02-0.04-0.04-0.06c-0.1,0.04-0.2,0.24-0.31,0.61c-0.1,0.37-0.2,0.85-0.28,1.45
		c-0.08,0.6-0.14,1.25-0.18,1.97C22.25,54.82,22.25,55.56,22.29,56.3z"/>
	<path d="M27.03,59.13c-0.44,0.17-0.82,0.16-1.14-0.01c-0.32-0.18-0.55-0.45-0.69-0.82c-0.09-0.23-0.16-0.53-0.21-0.91
		c-0.05-0.38-0.08-0.79-0.08-1.23c0-0.44,0.03-0.86,0.09-1.28c0.06-0.41,0.16-0.76,0.3-1.06c0.14-0.3,0.32-0.49,0.54-0.57
		c0.12-0.04,0.24-0.05,0.36-0.01c0.12,0.04,0.2,0.13,0.26,0.27c0.05,0.13,0.05,0.35-0.01,0.67c-0.06,0.32-0.12,0.69-0.2,1.1
		c-0.08,0.42-0.12,0.84-0.14,1.26c-0.02,0.42,0.04,0.8,0.16,1.13c0.12,0.32,0.26,0.51,0.41,0.57c0.15,0.06,0.34,0.05,0.56-0.03
		c0.34-0.13,0.64-0.44,0.91-0.93c0.27-0.49,0.46-1.24,0.57-2.25l0.32,0.15c-0.02,1.01-0.2,1.86-0.56,2.55S27.65,58.89,27.03,59.13z
		 M26.24,51.71c-0.19,0.07-0.38,0.09-0.57,0.05s-0.32-0.15-0.4-0.35c-0.09-0.24-0.04-0.49,0.16-0.76c0.2-0.27,0.43-0.46,0.71-0.56
		c0.18-0.07,0.35-0.09,0.5-0.05c0.15,0.03,0.27,0.15,0.35,0.36c0.08,0.21,0.04,0.46-0.11,0.74C26.72,51.42,26.51,51.61,26.24,51.71z
		"/>
	<path d="M34.48,56.14c-0.39,0.15-0.72,0.16-1,0.05c-0.28-0.12-0.47-0.33-0.59-0.62c-0.08-0.2-0.12-0.42-0.14-0.68
		c-0.02-0.25-0.03-0.5-0.05-0.76c-0.02-0.26-0.07-0.49-0.15-0.7c-0.08-0.22-0.19-0.35-0.33-0.4c-0.14-0.04-0.27-0.04-0.41,0.01
		c-0.3,0.11-0.56,0.35-0.78,0.71c-0.22,0.36-0.41,0.79-0.56,1.27s-0.29,0.97-0.39,1.47c-0.11,0.5-0.2,0.94-0.27,1.33
		c-0.19,0.07-0.38,0.11-0.58,0.11c-0.19,0-0.38-0.06-0.56-0.17c-0.01-0.05-0.01-0.23,0-0.52s0.01-0.64,0.01-1.05
		c0-0.4-0.03-0.82-0.08-1.25c-0.05-0.43-0.13-0.8-0.25-1.12c0.04-0.11,0.12-0.23,0.23-0.36c0.11-0.13,0.25-0.23,0.41-0.29
		c0.35-0.13,0.58-0.05,0.69,0.25c0.05,0.12,0.09,0.31,0.13,0.56c0.04,0.25,0.08,0.54,0.12,0.87c0.13-0.45,0.29-0.88,0.48-1.31
		c0.19-0.43,0.42-0.8,0.68-1.12c0.26-0.32,0.56-0.55,0.9-0.67c0.43-0.16,0.8-0.14,1.11,0.07c0.31,0.21,0.54,0.49,0.67,0.84
		c0.11,0.3,0.17,0.6,0.17,0.89c0,0.3-0.01,0.58-0.01,0.84s0.03,0.51,0.11,0.73c0.06,0.16,0.14,0.26,0.24,0.29
		c0.1,0.04,0.19,0.04,0.28,0c0.24-0.09,0.44-0.3,0.62-0.63c0.17-0.33,0.31-0.71,0.41-1.16c0.1-0.44,0.17-0.88,0.22-1.31l0.33,0.11
		c-0.02,0.57-0.09,1.1-0.2,1.61c-0.11,0.5-0.28,0.94-0.51,1.31C35.19,55.73,34.88,55.98,34.48,56.14z"/>
	<path d="M38.42,55.17c-0.5,0.19-0.94,0.24-1.32,0.15c-0.38-0.09-0.7-0.27-0.95-0.53c-0.25-0.26-0.44-0.56-0.56-0.89
		c-0.11-0.29-0.15-0.53-0.14-0.72c0.02-0.19,0.07-0.34,0.17-0.47c0.09-0.12,0.18-0.22,0.27-0.3c0.09-0.08,0.15-0.15,0.18-0.22
		c0.15-0.35,0.29-0.75,0.43-1.2s0.22-0.91,0.25-1.4l-0.06-0.15c-0.15-0.4-0.19-0.71-0.12-0.92c0.07-0.21,0.2-0.36,0.38-0.42
		c0.12-0.05,0.22-0.05,0.3-0.01c0.08,0.04,0.14,0.1,0.18,0.17c0.02,0.06,0.04,0.13,0.04,0.22c0,0.09,0.03,0.2,0.09,0.34
		c0.11,0.3,0.31,0.61,0.6,0.94s0.59,0.68,0.9,1.05s0.55,0.79,0.72,1.23c0.05,0.12,0.08,0.23,0.11,0.33s0.05,0.2,0.06,0.3
		c0.28-0.2,0.52-0.48,0.72-0.86c0.2-0.38,0.33-0.88,0.41-1.5l0.23,0.07c0.03,0.64-0.08,1.2-0.3,1.68c-0.23,0.48-0.57,0.85-1.02,1.11
		c0,0.47-0.15,0.87-0.44,1.21C39.25,54.74,38.88,55,38.42,55.17z M38.07,54.55c0.2-0.08,0.36-0.2,0.5-0.36
		c0.13-0.16,0.21-0.36,0.24-0.59c-0.44,0.06-0.87,0.04-1.29-0.06s-0.76-0.24-1.03-0.41c-0.13,0.08-0.15,0.24-0.06,0.48
		c0.12,0.33,0.34,0.6,0.64,0.82C37.36,54.65,37.7,54.69,38.07,54.55z M38.75,53.11c-0.01-0.08-0.03-0.16-0.06-0.26
		c-0.03-0.1-0.06-0.17-0.07-0.22c-0.18-0.45-0.41-0.87-0.68-1.26c-0.28-0.4-0.56-0.8-0.84-1.22c-0.06,0.38-0.15,0.79-0.25,1.24
		c-0.1,0.45-0.22,0.82-0.34,1.12c0.26,0.21,0.59,0.38,0.99,0.5C37.9,53.13,38.31,53.16,38.75,53.11z"/>
	<path d="M39.37,44.17c-0.15-0.02-0.29-0.07-0.45-0.14c-0.15-0.07-0.25-0.16-0.29-0.28c-0.06-0.16-0.05-0.36,0.03-0.6
		c0.08-0.24,0.17-0.49,0.26-0.75c0.1-0.26,0.14-0.49,0.13-0.69c0.14-0.05,0.29-0.05,0.45,0.01c0.16,0.06,0.27,0.16,0.32,0.3
		c0.05,0.14,0.05,0.34-0.01,0.59s-0.13,0.52-0.22,0.79C39.51,43.67,39.43,43.93,39.37,44.17z"/>
	<path d="M49.36,51.64c-0.76,0.29-1.45,0.34-2.07,0.17c-0.62-0.18-1.15-0.51-1.59-0.99s-0.77-1.03-1.01-1.64
		c-0.3-0.79-0.48-1.62-0.54-2.51c-0.06-0.88-0.02-1.76,0.14-2.64s0.39-1.7,0.72-2.46c0.33-0.76,0.74-1.42,1.23-1.98
		c0.49-0.56,1.04-0.95,1.65-1.18c0.44-0.17,0.85-0.2,1.22-0.11c0.38,0.09,0.66,0.39,0.85,0.88c0.11,0.3,0.19,0.65,0.22,1.06
		s0.03,0.82-0.01,1.23s-0.13,0.77-0.27,1.07s-0.32,0.5-0.55,0.58c-0.1,0.04-0.22,0.04-0.35,0.01s-0.28-0.11-0.44-0.25
		c0.09-0.23,0.18-0.5,0.27-0.81c0.1-0.32,0.18-0.64,0.24-0.98c0.07-0.34,0.1-0.66,0.11-0.97c0.01-0.31-0.02-0.56-0.1-0.76
		c-0.07-0.18-0.17-0.3-0.31-0.37s-0.33-0.05-0.58,0.04c-0.44,0.17-0.83,0.5-1.17,1.01s-0.62,1.12-0.84,1.83s-0.37,1.48-0.46,2.29
		c-0.08,0.81-0.09,1.62-0.02,2.42c0.07,0.8,0.23,1.52,0.48,2.17c0.18,0.48,0.43,0.91,0.74,1.29c0.31,0.38,0.68,0.65,1.1,0.8
		c0.42,0.15,0.89,0.13,1.41-0.06c0.54-0.2,1.02-0.56,1.44-1.06s0.76-1.08,1.02-1.74c0.26-0.66,0.42-1.32,0.47-1.98l0.49,0.11
		c-0.1,0.8-0.28,1.57-0.56,2.31c-0.28,0.74-0.66,1.39-1.15,1.96C50.67,50.95,50.07,51.37,49.36,51.64z"/>
	<path d="M54.17,48.88c-0.45,0.17-0.81,0.14-1.09-0.09c-0.28-0.23-0.48-0.52-0.61-0.87c-0.12-0.32-0.19-0.67-0.22-1.04
		s-0.01-0.74,0.06-1.09c0.06-0.36,0.17-0.66,0.32-0.92c0.15-0.26,0.33-0.43,0.55-0.51c0.07-0.03,0.16-0.04,0.26-0.06
		c0.1-0.01,0.19,0,0.25,0.04c-0.06,0.19-0.12,0.43-0.16,0.69c-0.04,0.27-0.07,0.54-0.08,0.83c-0.01,0.28,0,0.56,0.03,0.83
		c0.04,0.27,0.09,0.51,0.17,0.72c0.08,0.2,0.18,0.35,0.3,0.45c0.12,0.1,0.28,0.12,0.47,0.04c0.19-0.07,0.38-0.26,0.56-0.58
		c0.18-0.31,0.34-0.66,0.47-1.03c-0.43-0.17-0.78-0.4-1.05-0.69c-0.27-0.29-0.5-0.68-0.68-1.17c-0.08-0.21-0.12-0.47-0.12-0.78
		c0-0.31,0.08-0.61,0.24-0.9c0.16-0.29,0.44-0.51,0.84-0.66c0.43-0.16,0.78-0.16,1.04,0.02c0.26,0.17,0.46,0.42,0.58,0.75
		c0.14,0.37,0.2,0.82,0.18,1.35c-0.02,0.53-0.09,1.05-0.2,1.57c0.14,0.01,0.29-0.01,0.45-0.07c0.15-0.06,0.32-0.16,0.5-0.31
		c0.18-0.15,0.34-0.34,0.48-0.58c0.14-0.24,0.21-0.52,0.23-0.85l0.34,0.09c-0.03,0.59-0.18,1.07-0.45,1.45s-0.59,0.62-0.94,0.76
		c-0.13,0.05-0.26,0.09-0.4,0.11c-0.14,0.02-0.27,0.04-0.4,0.04c-0.19,0.53-0.44,1.02-0.77,1.49C55,48.39,54.62,48.71,54.17,48.88z
		 M55.66,45.68c0.11-0.44,0.17-0.89,0.19-1.36c0.02-0.46-0.04-0.86-0.17-1.2c-0.09-0.23-0.19-0.38-0.29-0.46
		c-0.11-0.08-0.23-0.09-0.37-0.04c-0.19,0.07-0.33,0.28-0.43,0.62c-0.1,0.34-0.07,0.72,0.09,1.13c0.08,0.21,0.21,0.45,0.4,0.72
		C55.26,45.37,55.45,45.56,55.66,45.68z"/>
	<path d="M59.75,46.76c-0.45,0.17-0.81,0.14-1.09-0.09c-0.28-0.23-0.48-0.52-0.61-0.87c-0.12-0.32-0.19-0.67-0.22-1.04
		c-0.03-0.37-0.01-0.74,0.06-1.09c0.06-0.36,0.17-0.66,0.32-0.92c0.15-0.26,0.33-0.43,0.55-0.51c0.07-0.03,0.16-0.04,0.26-0.06
		c0.1-0.01,0.19,0,0.25,0.04c-0.06,0.19-0.12,0.43-0.16,0.69c-0.04,0.27-0.07,0.54-0.08,0.83c-0.01,0.28,0,0.56,0.03,0.83
		c0.04,0.27,0.09,0.51,0.17,0.72c0.08,0.2,0.18,0.35,0.3,0.45c0.12,0.1,0.28,0.12,0.47,0.04c0.19-0.07,0.38-0.26,0.56-0.58
		c0.18-0.31,0.34-0.66,0.47-1.03c-0.43-0.17-0.78-0.4-1.05-0.69c-0.27-0.29-0.5-0.68-0.68-1.17c-0.08-0.21-0.12-0.47-0.11-0.78
		c0-0.31,0.08-0.61,0.24-0.9c0.16-0.29,0.44-0.51,0.84-0.66c0.43-0.16,0.78-0.16,1.04,0.02c0.26,0.17,0.46,0.42,0.58,0.75
		c0.14,0.37,0.2,0.82,0.18,1.35c-0.02,0.53-0.09,1.05-0.2,1.56c0.14,0.01,0.29-0.01,0.45-0.07c0.15-0.06,0.32-0.16,0.5-0.31
		c0.18-0.15,0.34-0.34,0.48-0.58c0.14-0.24,0.21-0.52,0.23-0.85l0.34,0.09c-0.03,0.59-0.18,1.07-0.45,1.45
		c-0.28,0.37-0.59,0.62-0.94,0.76c-0.13,0.05-0.26,0.09-0.4,0.11c-0.14,0.02-0.27,0.04-0.4,0.04c-0.19,0.53-0.44,1.02-0.77,1.49
		C60.58,46.28,60.2,46.6,59.75,46.76z M61.24,43.57c0.11-0.44,0.17-0.89,0.19-1.35s-0.04-0.86-0.17-1.2
		c-0.09-0.23-0.19-0.38-0.29-0.46c-0.11-0.08-0.23-0.09-0.37-0.04c-0.19,0.07-0.33,0.28-0.43,0.62c-0.1,0.34-0.07,0.72,0.09,1.13
		c0.08,0.21,0.21,0.45,0.4,0.72C60.84,43.25,61.03,43.45,61.24,43.57z"/>
	<path d="M69.1,43.32c-0.31,0.12-0.62,0.12-0.92,0.01c-0.31-0.11-0.58-0.29-0.84-0.54c-0.25-0.25-0.47-0.51-0.66-0.8
		c-0.19-0.29-0.33-0.55-0.41-0.78c0.13-0.08,0.29-0.19,0.47-0.33s0.37-0.3,0.55-0.49s0.31-0.39,0.4-0.6c0.09-0.21,0.09-0.42,0-0.64
		c-0.07-0.18-0.18-0.3-0.34-0.37s-0.34-0.06-0.55,0.02c-0.28,0.11-0.51,0.3-0.69,0.58c-0.18,0.28-0.32,0.61-0.42,0.99
		c-0.1,0.38-0.17,0.78-0.21,1.19c-0.04,0.42-0.07,0.81-0.08,1.19c-0.01,0.38-0.01,0.71-0.01,0.98c0,0.34-0.02,0.58-0.08,0.73
		c-0.06,0.14-0.18,0.25-0.37,0.32c-0.07,0.03-0.16,0.04-0.27,0.03c-0.11,0-0.23-0.07-0.35-0.21c-0.13-0.13-0.25-0.38-0.39-0.73
		c-0.23-0.61-0.4-1.31-0.5-2.1c-0.11-0.79-0.16-1.62-0.16-2.48c0-0.86,0.04-1.7,0.12-2.52c0.08-0.82,0.19-1.57,0.33-2.25
		c0.14-0.68,0.3-1.24,0.49-1.67c0.18-0.43,0.37-0.69,0.57-0.77c0.17-0.06,0.35-0.02,0.54,0.15c0.19,0.16,0.35,0.4,0.47,0.72
		c0.13,0.34,0.2,0.74,0.2,1.21s-0.05,0.97-0.16,1.5c-0.11,0.53-0.29,1.05-0.52,1.58c-0.24,0.52-0.53,1.01-0.89,1.45
		c-0.03,0.75-0.01,1.48,0.08,2.17c0.09,0.69,0.21,1.29,0.35,1.79c0.02-0.48,0.07-0.97,0.14-1.49c0.07-0.52,0.17-1.01,0.31-1.49
		c0.14-0.48,0.32-0.9,0.56-1.25c0.24-0.35,0.54-0.6,0.91-0.74c0.4-0.15,0.8-0.14,1.21,0.02c0.41,0.17,0.69,0.46,0.85,0.88
		c0.11,0.3,0.13,0.59,0.06,0.87c-0.08,0.28-0.2,0.54-0.38,0.77c-0.18,0.23-0.38,0.43-0.59,0.59s-0.4,0.28-0.57,0.35
		c0.08,0.12,0.18,0.27,0.31,0.45c0.13,0.18,0.28,0.35,0.44,0.5c0.16,0.16,0.34,0.27,0.53,0.35c0.19,0.08,0.38,0.08,0.57,0.01
		c0.25-0.09,0.46-0.31,0.64-0.64c0.18-0.33,0.32-0.73,0.43-1.21s0.18-0.98,0.2-1.51l0.31,0.17c0.02,0.56-0.03,1.13-0.15,1.7
		c-0.12,0.57-0.31,1.07-0.56,1.49C69.79,42.9,69.47,43.18,69.1,43.32z M64.45,37.52c0.18-0.34,0.35-0.75,0.52-1.21
		c0.17-0.47,0.28-0.94,0.34-1.43c0.06-0.49,0.03-0.91-0.1-1.29c0-0.01-0.01-0.02-0.01-0.02s0-0.01-0.01-0.02
		c-0.08,0.08-0.18,0.31-0.28,0.69c-0.1,0.39-0.19,0.86-0.27,1.43C64.56,36.24,64.49,36.86,64.45,37.52z"/>
	<path d="M73.03,42.43c-0.57,0.22-1.07,0.2-1.5-0.04c-0.43-0.24-0.76-0.67-0.99-1.29c-0.18-0.49-0.32-1.1-0.4-1.83
		c-0.08-0.73-0.12-1.52-0.12-2.36c0-0.84,0.04-1.68,0.12-2.51c0.08-0.83,0.19-1.61,0.33-2.31s0.31-1.29,0.5-1.75s0.4-0.73,0.63-0.82
		c0.2-0.08,0.39-0.02,0.58,0.17c0.19,0.19,0.33,0.4,0.43,0.63c0.11,0.28,0.17,0.64,0.21,1.09c0.03,0.44,0.02,0.93-0.03,1.46
		c-0.05,0.53-0.13,1.07-0.26,1.62c-0.12,0.55-0.29,1.07-0.5,1.56c-0.21,0.49-0.46,0.91-0.75,1.26c-0.02,0.16-0.02,0.41-0.01,0.77
		c0.02,0.36,0.06,0.76,0.13,1.2c0.07,0.44,0.18,0.87,0.34,1.27c0.15,0.4,0.34,0.72,0.56,0.96c0.22,0.24,0.48,0.31,0.77,0.2
		c0.26-0.1,0.49-0.32,0.7-0.68c0.21-0.35,0.34-0.73,0.4-1.15c-0.44-0.06-0.83-0.23-1.16-0.52c-0.33-0.29-0.56-0.63-0.71-1.03
		c-0.19-0.49-0.2-0.93-0.05-1.33c0.15-0.4,0.42-0.67,0.79-0.81c0.32-0.12,0.63-0.1,0.93,0.07c0.3,0.17,0.55,0.5,0.74,1.01
		c0.11,0.29,0.19,0.61,0.24,0.96c0.05,0.35,0.06,0.72,0.03,1.09c0.05-0.02,0.09-0.03,0.13-0.04c0.04-0.01,0.09-0.02,0.15-0.05
		c0.35-0.13,0.61-0.34,0.79-0.62c0.18-0.28,0.3-0.59,0.37-0.91s0.12-0.61,0.14-0.86l0.34,0.23c-0.03,0.68-0.16,1.25-0.41,1.7
		c-0.25,0.45-0.67,0.78-1.25,1.01c-0.05,0.02-0.1,0.04-0.16,0.06c-0.06,0.02-0.11,0.04-0.16,0.04c-0.11,0.55-0.31,1.07-0.61,1.54
		C74.01,41.88,73.58,42.22,73.03,42.43z M71.2,36.25c0.16-0.32,0.3-0.68,0.42-1.08c0.12-0.39,0.22-0.8,0.29-1.21
		s0.13-0.81,0.17-1.19c0.03-0.38,0.05-0.73,0.05-1.03c0-0.3-0.02-0.54-0.06-0.7c-0.01-0.02-0.01-0.04-0.02-0.05
		c0-0.02-0.01-0.03-0.01-0.04c-0.08,0.06-0.17,0.26-0.28,0.6c-0.11,0.34-0.21,0.76-0.31,1.27c-0.1,0.51-0.17,1.06-0.22,1.66
		C71.18,35.08,71.17,35.67,71.2,36.25z M74.23,39.29c0.01-0.23,0-0.46-0.03-0.68c-0.03-0.22-0.09-0.45-0.19-0.69
		c-0.14-0.36-0.28-0.61-0.43-0.75c-0.15-0.14-0.28-0.18-0.4-0.14c-0.13,0.05-0.21,0.18-0.23,0.4c-0.03,0.22,0.01,0.45,0.1,0.7
		c0.08,0.21,0.22,0.44,0.41,0.68C73.66,39.06,73.92,39.22,74.23,39.29z"/>
	<path d="M78.35,39.71c-0.45,0.17-0.81,0.14-1.09-0.09c-0.28-0.23-0.48-0.52-0.61-0.87c-0.12-0.32-0.19-0.67-0.22-1.04
		c-0.03-0.37-0.01-0.74,0.06-1.09c0.06-0.36,0.17-0.66,0.32-0.92c0.15-0.26,0.33-0.43,0.55-0.51c0.07-0.03,0.16-0.04,0.26-0.06
		c0.1-0.01,0.19,0,0.25,0.04c-0.06,0.19-0.12,0.43-0.16,0.69c-0.04,0.27-0.07,0.54-0.08,0.83c-0.01,0.28,0,0.56,0.03,0.83
		c0.04,0.27,0.09,0.51,0.17,0.72c0.08,0.2,0.18,0.35,0.3,0.45s0.28,0.12,0.47,0.04c0.19-0.07,0.38-0.26,0.56-0.58
		c0.18-0.31,0.34-0.66,0.47-1.03c-0.43-0.17-0.78-0.4-1.05-0.69c-0.27-0.29-0.5-0.68-0.68-1.17c-0.08-0.21-0.12-0.47-0.11-0.78
		c0-0.31,0.08-0.61,0.24-0.9c0.16-0.29,0.44-0.51,0.84-0.66c0.43-0.16,0.78-0.16,1.04,0.02c0.26,0.17,0.46,0.42,0.58,0.75
		c0.14,0.37,0.2,0.82,0.18,1.35c-0.02,0.53-0.09,1.05-0.2,1.56c0.14,0.01,0.29-0.01,0.45-0.07c0.15-0.06,0.32-0.16,0.5-0.31
		c0.18-0.15,0.34-0.34,0.48-0.58c0.14-0.24,0.21-0.52,0.23-0.85l0.34,0.09c-0.03,0.59-0.18,1.07-0.45,1.45
		c-0.28,0.37-0.59,0.62-0.94,0.76c-0.13,0.05-0.26,0.09-0.4,0.11c-0.14,0.02-0.27,0.04-0.4,0.04c-0.19,0.53-0.44,1.02-0.77,1.49
		C79.19,39.22,78.8,39.54,78.35,39.71z M79.85,36.51c0.11-0.44,0.17-0.89,0.19-1.35s-0.04-0.86-0.17-1.2
		c-0.09-0.23-0.19-0.38-0.29-0.46c-0.11-0.08-0.23-0.09-0.37-0.04c-0.19,0.07-0.33,0.28-0.43,0.62c-0.1,0.34-0.07,0.72,0.09,1.13
		c0.08,0.21,0.21,0.45,0.4,0.72C79.45,36.2,79.64,36.4,79.85,36.51z"/>
	<path d="M83.91,37.61c-0.45,0.17-0.81,0.14-1.09-0.09c-0.28-0.23-0.48-0.52-0.61-0.87c-0.12-0.32-0.19-0.67-0.22-1.04
		c-0.03-0.37-0.01-0.74,0.06-1.09c0.06-0.36,0.17-0.66,0.32-0.92c0.15-0.26,0.33-0.43,0.55-0.51c0.07-0.03,0.16-0.04,0.26-0.06
		c0.1-0.01,0.19,0,0.25,0.04c-0.06,0.19-0.12,0.43-0.16,0.69c-0.04,0.27-0.07,0.54-0.08,0.83c-0.01,0.28,0,0.56,0.03,0.83
		c0.04,0.27,0.09,0.51,0.17,0.72c0.08,0.2,0.18,0.35,0.3,0.45s0.28,0.12,0.47,0.04c0.19-0.07,0.38-0.26,0.56-0.58
		c0.18-0.31,0.34-0.66,0.47-1.03c-0.43-0.17-0.78-0.4-1.05-0.69c-0.27-0.29-0.5-0.68-0.68-1.17c-0.08-0.21-0.12-0.47-0.11-0.78
		c0-0.31,0.08-0.61,0.24-0.9c0.16-0.29,0.44-0.51,0.84-0.66c0.43-0.16,0.78-0.16,1.04,0.02c0.26,0.17,0.46,0.42,0.58,0.75
		c0.14,0.37,0.2,0.82,0.18,1.35c-0.02,0.53-0.09,1.05-0.2,1.56c0.14,0.01,0.29-0.01,0.45-0.07c0.15-0.06,0.32-0.16,0.5-0.31
		c0.18-0.15,0.34-0.34,0.48-0.58c0.14-0.24,0.21-0.52,0.23-0.85l0.34,0.09c-0.03,0.59-0.18,1.07-0.45,1.45
		c-0.28,0.37-0.59,0.62-0.94,0.76c-0.13,0.05-0.26,0.09-0.4,0.11c-0.14,0.02-0.27,0.04-0.4,0.04c-0.19,0.53-0.44,1.02-0.77,1.49
		C84.74,37.12,84.35,37.44,83.91,37.61z M85.4,34.41c0.11-0.44,0.17-0.89,0.19-1.35s-0.04-0.86-0.17-1.2
		c-0.09-0.23-0.19-0.38-0.29-0.46c-0.11-0.08-0.23-0.09-0.37-0.04c-0.19,0.07-0.33,0.28-0.43,0.62c-0.1,0.34-0.07,0.72,0.09,1.13
		c0.08,0.21,0.21,0.45,0.4,0.72C85,34.1,85.19,34.29,85.4,34.41z"/>
	<path d="M93.26,34.17c-0.31,0.12-0.62,0.12-0.92,0.01c-0.31-0.11-0.58-0.29-0.84-0.54c-0.25-0.25-0.47-0.51-0.66-0.8
		s-0.33-0.55-0.41-0.78c0.13-0.08,0.29-0.19,0.47-0.33c0.19-0.14,0.37-0.3,0.55-0.49s0.31-0.39,0.4-0.6c0.09-0.21,0.09-0.42,0-0.64
		c-0.07-0.18-0.18-0.3-0.34-0.37c-0.16-0.07-0.34-0.06-0.55,0.02c-0.28,0.11-0.51,0.3-0.69,0.58c-0.18,0.28-0.32,0.61-0.42,0.99
		c-0.1,0.38-0.17,0.78-0.21,1.19c-0.04,0.42-0.07,0.81-0.08,1.19c-0.01,0.38-0.01,0.71-0.01,0.98c0,0.34-0.02,0.58-0.08,0.72
		c-0.06,0.14-0.18,0.25-0.37,0.32c-0.07,0.03-0.16,0.04-0.27,0.03c-0.11,0-0.23-0.07-0.35-0.21c-0.13-0.13-0.25-0.38-0.39-0.73
		c-0.23-0.61-0.4-1.31-0.5-2.1c-0.11-0.79-0.16-1.62-0.16-2.48c0-0.86,0.04-1.7,0.12-2.52s0.19-1.57,0.33-2.25
		c0.14-0.68,0.3-1.24,0.49-1.67s0.38-0.69,0.57-0.77c0.17-0.06,0.35-0.02,0.54,0.15c0.19,0.16,0.35,0.4,0.47,0.72
		c0.13,0.34,0.2,0.74,0.2,1.21c0.01,0.47-0.05,0.97-0.16,1.5c-0.11,0.53-0.29,1.05-0.52,1.58c-0.24,0.52-0.53,1.01-0.89,1.45
		c-0.03,0.75,0,1.48,0.08,2.17C88.74,32.4,88.86,33,89,33.5c0.02-0.48,0.07-0.97,0.14-1.49c0.07-0.52,0.17-1.01,0.31-1.49
		c0.14-0.48,0.32-0.9,0.56-1.25c0.24-0.35,0.54-0.6,0.91-0.74c0.4-0.15,0.8-0.14,1.21,0.02c0.4,0.17,0.69,0.46,0.85,0.88
		c0.11,0.3,0.13,0.59,0.05,0.87c-0.08,0.28-0.2,0.54-0.38,0.77s-0.38,0.43-0.59,0.59s-0.4,0.28-0.57,0.35
		c0.08,0.12,0.18,0.27,0.31,0.45c0.13,0.18,0.28,0.35,0.44,0.5c0.16,0.16,0.34,0.27,0.53,0.35s0.38,0.08,0.57,0.01
		c0.25-0.09,0.46-0.31,0.64-0.64c0.18-0.33,0.32-0.73,0.43-1.21c0.11-0.48,0.18-0.98,0.21-1.51l0.31,0.17
		c0.02,0.56-0.03,1.13-0.15,1.7c-0.12,0.57-0.31,1.07-0.56,1.49C93.95,33.74,93.64,34.02,93.26,34.17z M88.61,28.37
		c0.18-0.34,0.35-0.75,0.52-1.21c0.17-0.47,0.28-0.94,0.34-1.43c0.06-0.49,0.03-0.91-0.1-1.29c0-0.01-0.01-0.02-0.01-0.02
		s0-0.01-0.01-0.02c-0.08,0.08-0.18,0.31-0.28,0.69c-0.1,0.39-0.19,0.86-0.27,1.43C88.72,27.08,88.66,27.7,88.61,28.37z"/>
</g>
</svg>
